<?xml version="1.0" encoding="UTF-8"?><svg id="Layer_1" xmlns="http://www.w3.org/2000/svg" viewBox="0 0 1141.6 450.5"><defs><style>.cls-1{fill:#fff;}</style></defs><path class="cls-1" d="m267.1,144.2c5.1-12.1,7.9-25.3,7.9-39.2C275,47,226.2,0,166,0S57,47,57,105s2.8,27.2,7.9,39.4C27.7,153.4,0,187,0,227s38.1,85,85,85,10.2-.5,15.1-1.3l-40.4-40.4c-2.9-2.9-2.9-7.7,0-10.6,2.9-2.9,7.7-2.9,10.6,0l46.2,46.2c14-5.6,26.1-14.8,35.2-26.4l.2-132.6c0-8.3,6.7-15,15-15h0c8.3,0,15,6.7,15,15l-.2,133.2c3.3,4.1,7,7.9,11,11.4l77.4-77.4c2.9-2.9,7.7-2.9,10.6,0,2.9,2.9,2.9,7.7,0,10.6l-75.6,75.6c12.6,7.4,27.2,11.6,42.8,11.6,46.9,0,85-38.1,85-85s-28.1-74.1-65.9-82.8Z"/><path class="cls-1" d="m181.7,302.7v-22.4c-6.8-8.5-12.1-18.4-15.2-29.1-3.1,10.5-8.2,20.1-14.7,28.4v61.5c-.1,0-35.2-35.1-35.2-35.1-5.3,2.1-10.8,3.7-16.5,4.7l51.6,51.6v73.2c-.1,8.3,6.6,15,14.8,15h0c8.3,0,15-6.7,15-15l.2-111.7c.2-.2.4-.3.6-.5l22.9-22.9c-4.4-2.6-8.5-5.5-12.4-8.8l-11.1,11.1Z"/><polygon class="cls-1" points="304.6 73.5 389.6 73.5 389.6 311.4 447.4 311.4 447.4 73.5 532.1 73.5 532.1 25.1 304.6 25.1 304.6 73.5"/><path class="cls-1" d="m599.5,247.3c0-35.3,1.5-58.5,4.6-69.5,3.1-11.1,7.3-18.7,12.6-22.9,5.3-4.2,11.8-6.3,19.5-6.3s16.5,3,25.8,9l17-47.9c-11.6-6.9-23.6-10.4-36.1-10.4s-16.8,2.2-23.7,6.6c-7,4.4-14.8,13.6-23.5,27.5v-29.5h-51v207.4h54.9v-64.1Z"/><path class="cls-1" d="m822.8,245.4c-3,10.4-7.4,18-13.3,22.7s-13.1,7-21.7,7c-12.6,0-23.2-4.5-31.6-13.6-8.5-9-12.9-21.7-13.3-38h137.5c.8-42.1-7.7-73.3-25.6-93.7-17.8-20.4-42.2-30.6-73-30.6s-50.2,9.7-68.2,29.2c-18,19.5-27,46.4-27,80.8s6.8,52.6,20.5,71.5c17.3,23.6,44,35.4,80.1,35.4s41.8-5.2,56.9-15.7c15.2-10.5,26.3-25.7,33.3-45.8l-54.7-9.2Zm-67.4-91c7.8-8.7,17.7-13.1,29.7-13.1s20.7,4.1,28.5,12.4c7.8,8.3,11.9,20.3,12.3,36.2h-82c-.1-15,3.7-26.8,11.5-35.5Z"/><path class="cls-1" d="m1066.6,300.4c15.2-10.5,26.3-25.7,33.3-45.8l-54.7-9.2c-3,10.4-7.4,18-13.3,22.7s-13.1,7-21.7,7c-12.6,0-23.2-4.5-31.6-13.6-8.5-9-12.9-21.7-13.3-38h137.5c.8-42.1-7.7-73.3-25.6-93.7-17.8-20.4-42.2-30.6-73-30.6s-50.2,9.7-68.2,29.2c-18,19.5-27,46.4-27,80.8s6.8,52.6,20.5,71.5c16.8,22.9,42.5,34.7,77.1,35.3v85.1h17.2v-32.5c0-5.5.5-9.6,1.6-12.4,1-2.8,2.7-4.9,4.9-6.3,2.2-1.4,4.8-2.1,7.6-2.1s4.5.5,6.2,1.6c1.6,1.1,2.8,2.5,3.4,4.4.7,1.8,1,6.1,1,12.9v34.2h17.2v-38c0-5.8-.3-10.1-.9-12.9s-1.7-5.3-3.3-7.6-4-4.2-7.2-5.6-6.7-2.2-10.7-2.2c-7.7,0-14.3,3.2-19.8,9.7v-29.3c16.6-1.8,30.9-6.8,42.8-15Zm-88.8-146c7.8-8.7,17.7-13.1,29.7-13.1s20.7,4.1,28.5,12.4c7.8,8.3,11.9,20.3,12.3,36.2h-82c-.1-15,3.7-26.8,11.5-35.5Z"/><path class="cls-1" d="m424.5,334.9c-4.3,0-8.2,1-11.8,3.1-3.5,2-6.3,4.7-8.4,7.9v-9.5h-16v89.5h17.2v-32.7c3.2,3.5,6.3,5.9,9.2,7.3s6.2,2.1,9.7,2.1c7.5,0,13.9-3,19.2-9,5.3-6,7.9-14.4,7.9-25.2s-2.6-18.8-7.9-24.7c-5.2-5.9-11.6-8.8-19.2-8.8Zm5.6,49.3c-2.6,3.2-6,4.8-9.9,4.8s-7.7-1.7-10.6-5.2c-2.9-3.5-4.3-8.9-4.3-16.1s1.4-11.1,4.2-14.4c2.8-3.2,6.2-4.9,10.4-4.9s7.4,1.6,10.1,4.9c2.7,3.3,4.1,8.3,4.1,15.1s-1.3,12.5-4,15.7Z"/><path class="cls-1" d="m519.9,342.7c-1.6-2.3-4-4.2-7.2-5.6s-6.7-2.2-10.7-2.2c-7.7,0-14.3,3.2-19.8,9.7v-32.9h-17.2v89.5h17.2v-32.5c0-5.5.5-9.6,1.6-12.4,1-2.8,2.7-4.9,4.9-6.3,2.2-1.4,4.8-2.1,7.6-2.1s4.5.5,6.2,1.6c1.6,1.1,2.8,2.5,3.4,4.4.7,1.8,1,6.1,1,12.9v34.2h17.2v-38c0-5.8-.3-10.1-.9-12.9s-1.7-5.3-3.3-7.6Z"/><path class="cls-1" d="m570.9,334.9c-6.3,0-12.1,1.4-17.2,4.2s-9.1,6.9-11.9,12.2c-2.8,5.3-4.2,10.8-4.2,16.5s1.4,13.8,4.2,19c2.8,5.2,6.9,9.1,12.3,11.8s11.1,4,17,4c9.6,0,17.6-3.2,23.9-9.7s9.5-14.6,9.5-24.4-3.1-17.8-9.4-24.1c-6.3-6.4-14.3-9.6-24.1-9.6Zm11.3,48.6c-3,3.4-6.8,5.1-11.3,5.1s-8.2-1.7-11.3-5.1c-3.1-3.4-4.6-8.3-4.6-14.8s1.5-11.4,4.6-14.8c3.1-3.4,6.8-5.1,11.3-5.1s8.2,1.7,11.3,5.1,4.5,8.3,4.5,14.6-1.5,11.5-4.5,14.9Z"/><path class="cls-1" d="m640.6,388.4c-1.1,0-2.1-.3-2.9-.9-.8-.6-1.3-1.3-1.5-2.2-.2-.9-.3-4-.3-9.2v-26.1h11.7v-13.7h-11.7v-22.9l-17.2,10v12.9h-7.9v13.7h7.9v28.3c0,6.1.2,10.1.5,12.1.4,2.8,1.3,5,2.4,6.7,1.2,1.6,3,3,5.5,4,2.5,1,5.3,1.6,8.4,1.6,5,0,9.6-.9,13.5-2.6l-1.5-13.3c-3,1.1-5.3,1.6-6.9,1.6Z"/><path class="cls-1" d="m688.9,334.9c-6.3,0-12.1,1.4-17.2,4.2s-9.1,6.9-11.9,12.2c-2.8,5.3-4.2,10.8-4.2,16.5s1.4,13.8,4.2,19c2.8,5.2,6.9,9.1,12.3,11.8s11.1,4,17,4c9.6,0,17.6-3.2,23.9-9.7s9.5-14.6,9.5-24.4-3.1-17.8-9.4-24.1c-6.3-6.4-14.3-9.6-24.1-9.6Zm11.3,48.6c-3,3.4-6.8,5.1-11.3,5.1s-8.2-1.7-11.3-5.1c-3.1-3.4-4.6-8.3-4.6-14.8s1.5-11.4,4.6-14.8c3.1-3.4,6.8-5.1,11.3-5.1s8.2,1.7,11.3,5.1,4.5,8.3,4.5,14.6-1.5,11.5-4.5,14.9Z"/><path class="cls-1" d="m779.2,345.5c-5.2-7-11.8-10.6-19.8-10.6s-14.3,2.9-19.5,8.6-7.8,14-7.8,24.9,2,15.9,6,21.7c5.1,7.4,12,11,20.7,11s14.3-3.5,19.4-10.5v9.5c0,3.8-.3,6.4-.8,7.9-.8,2-1.9,3.4-3.4,4.3-2.2,1.3-5.6,2-10.1,2s-6.1-.6-7.7-1.8c-1.2-.9-1.9-2.4-2.3-4.7l-19.6-2.4c0,.8,0,1.5,0,2.1,0,5.8,2.3,10.5,6.9,14.3,4.6,3.8,12.4,5.6,23.4,5.6s10.6-.6,14.4-1.8,6.8-2.9,9.1-5.1c2.3-2.2,4-5.1,5.3-8.9,1.3-3.8,1.9-9.5,1.9-17.2v-58.2h-16.1v9.1Zm-5.1,37c-2.9,3.3-6.4,4.9-10.6,4.9s-7.2-1.6-9.9-4.8c-2.7-3.2-4-8.2-4-15.1s1.3-11.4,4-14.6c2.7-3.2,6.1-4.8,10.2-4.8s7.7,1.6,10.5,4.9c2.8,3.3,4.2,8.2,4.2,15s-1.4,11.3-4.3,14.6Z"/><path class="cls-1" d="m834.8,337c-2.2,1.4-4.6,4.3-7.4,8.6v-9.2h-15.9v64.8h17.2v-20c0-11,.5-18.3,1.4-21.7,1-3.5,2.3-5.8,3.9-7.2,1.7-1.3,3.7-2,6.1-2s5.2.9,8.1,2.8l5.3-15c-3.6-2.2-7.4-3.2-11.3-3.2s-5.2.7-7.4,2.1Z"/><path class="cls-1" d="m913.3,379.9l.2-20c0-7.4-.8-12.6-2.3-15.3-1.5-2.8-4.2-5.1-7.9-6.9-3.7-1.8-9.4-2.7-17.1-2.7s-14.8,1.5-19,4.5c-4.3,3-7.3,7.7-9,13.9l15.6,2.8c1.1-3,2.4-5.1,4.2-6.3,1.7-1.2,4.1-1.8,7.1-1.8,4.5,0,7.6.7,9.2,2.1,1.6,1.4,2.4,3.8,2.4,7v1.7c-3.1,1.3-8.6,2.7-16.7,4.2-5.9,1.1-10.5,2.5-13.6,4s-5.6,3.7-7.4,6.6c-1.8,2.9-2.6,6.1-2.6,9.8,0,5.5,1.9,10.1,5.8,13.7,3.8,3.6,9.1,5.4,15.8,5.4s7.3-.7,10.7-2.1c3.3-1.4,6.5-3.6,9.4-6.4.1.3.3,1,.6,2,.7,2.2,1.2,3.9,1.6,5.1h17c-1.5-3.1-2.5-6-3.1-8.7-.5-2.7-.8-6.9-.8-12.6Zm-16.7-6.4c0,4.1-.2,6.9-.7,8.4-.7,2.2-2,4.1-4.1,5.7-2.8,2-5.8,3.1-8.9,3.1s-5-.9-6.8-2.6c-1.8-1.7-2.7-3.8-2.7-6.2s1.1-4.5,3.4-6c1.5-1,4.6-2,9.3-3,4.8-1,8.2-1.9,10.4-2.6v3.4Z"/><path class="cls-1" d="m966.1,334.9c-4.3,0-8.2,1-11.8,3.1-3.5,2-6.3,4.7-8.4,7.9v-9.5h-16v89.5h17.2v-32.7c3.2,3.5,6.3,5.9,9.2,7.3s6.2,2.1,9.7,2.1c7.5,0,13.9-3,19.2-9,5.3-6,7.9-14.4,7.9-25.2s-2.6-18.8-7.9-24.7c-5.2-5.9-11.6-8.8-19.2-8.8Zm5.6,49.3c-2.6,3.2-6,4.8-9.9,4.8s-7.7-1.7-10.6-5.2c-2.9-3.5-4.3-8.9-4.3-16.1s1.4-11.1,4.2-14.4c2.8-3.2,6.2-4.9,10.4-4.9s7.4,1.6,10.1,4.9c2.7,3.3,4.1,8.3,4.1,15.1s-1.3,12.5-4,15.7Z"/><path class="cls-1" d="m1123.9,336.4l-15.1,46-15.5-46h-18.2l24.7,65c-1,3.6-2.5,6.6-4.4,8.9-1.9,2.3-4.9,3.5-8.9,3.5s-4.6-.3-7.3-.8l1.5,13.4c3.2.7,6.4,1,9.7,1s6.2-.3,8.8-1c2.6-.7,4.8-1.7,6.5-2.9,1.8-1.2,3.3-2.9,4.7-4.9,1.4-2,2.8-4.9,4.3-8.7l4.1-11.3,22.9-62.4h-17.8Z"/></svg>