<?xml version="1.0" encoding="UTF-8"?><svg id="a" xmlns="http://www.w3.org/2000/svg" viewBox="0 0 1014.6 174.6"><path d="M292,29l-12-14-10-2-10-1h-6l-7,3h-8l-8-6-8-6-11-3h-8.9l-9.1,2-8,6-5,7-6,4h-3l-8-6-14.6-7h-28.4l-20,4-10,5-17,12-18,10-11,11-8,17-10,14-5,4.7-3,4.3,3,1-5,9-3,16L0,130.2l1,7.8,8-5,8-7,16-11,15-6,3,5-13,11-12,7,4,11,8,2,15-11,14,8v21l6,5,2.8-2.8s5.2-1.2,5.7-.2c.6,1,3.4-2,3.4-2l5,2,1-2,9-3,1-4-20-8-4-5h23l14.4-4,14.6-8,9-8,10-7,10,6,15,1h18l13,7,7,16,10.4-5h13.6l14-13,4-6-1-2-5,3-20,5h-13l-14-9-13-10-6-9v-26l4,2,17.6-10.9,4.4-10.1,4-13-1-18,17,10,19,9,11,3,27-6,12,5,13,1,1-2,1-5-14-2-5-8Z"/><path d="M325.9,42.2c.6,0,1.3-.1,2.1-.2s1.6,0,2.2,0h1.3v30.2c0,.7-.1,1.2-.3,1.7-.2,.5-.7,.9-1.4,1.2-.3,.1-1,.3-1.9,.4-.9,0-1.7,.2-2.2,.2v2.1h21.2v-2.1c-.6,0-1.3-.2-2.2-.4-.9-.2-1.5-.3-1.9-.5-.7-.3-1.1-.7-1.4-1.2-.2-.5-.3-1.1-.3-1.7v-29.9h1.3c.6,0,1.3,0,2.2,0,.8,0,1.5,.1,2.1,.2,1,.1,2.2,1.1,3.4,3,1.2,1.9,2.1,3.6,2.7,5.2h2.1v-10.9h-36.9v10.9h2.1c.6-1.6,1.4-3.4,2.7-5.2,1.2-1.9,2.4-2.9,3.4-3Z"/><path d="M358.5,39.6c.5,.3,.9,.8,1.1,1.5s.4,1.3,.4,1.8v29.9c0,.7-.1,1.2-.3,1.6-.2,.4-.6,.7-1.2,.9-.3,.1-.7,.2-1.2,.3-.4,0-.9,0-1.4,.1v2h16.4v-2c-.4,0-.8-.1-1.3-.3-.4-.1-.8-.3-1.1-.4-.4-.3-.8-.6-.9-1-.2-.4-.2-.9-.2-1.6v-14.4c.2-.3,.5-.6,.8-1,.3-.4,.7-.7,1.2-1.1,.6-.4,1.2-.7,1.8-.9,.6-.2,1.3-.3,2-.3,1.3,0,2.3,.5,2.9,1.4,.7,.9,1,2.3,1,4.1v12.6c0,.7,0,1.3-.2,1.7-.2,.4-.4,.7-.8,.9-.2,.1-.6,.2-1.1,.3s-.9,0-1.3,.1v2h16.1v-2c-.6,0-1.1-.2-1.5-.3-.4-.1-.8-.2-1.1-.4-.5-.2-.9-.5-1.1-.9-.2-.4-.3-.9-.3-1.6v-13.2c0-2.7-.7-4.9-2.2-6.6-1.5-1.7-3.6-2.5-6.5-2.5s-2.4,.2-3.4,.5c-1.1,.3-1.9,.7-2.6,1.1-.8,.5-1.5,1-2,1.5-.5,.5-1.2,1-1.8,1.7h-.1v-18.5l-.4-.4-13.4,.7v2c.5,0,1.1,.1,1.8,.3,.7,.1,1.2,.3,1.6,.6Z"/><path d="M398.1,74.4c1.3,1.3,2.8,2.3,4.8,3,1.9,.8,4.2,1.1,6.9,1.1s3-.2,4.2-.5c1.2-.3,2.4-.9,3.6-1.5,1.1-.6,2.1-1.4,3-2.3,.9-.9,1.6-1.9,2.3-2.9l-2-1.5c-.9,1.4-2.1,2.6-3.4,3.5-1.3,.9-2.9,1.4-4.5,1.4-3.1,0-5.3-1-6.7-2.9-1.4-1.9-2.1-4.7-2.1-8.4h18.2v-1.7c0-1.5-.2-3-.7-4.4-.5-1.4-1.2-2.6-2.2-3.6-1.1-1.1-2.4-1.9-4-2.5-1.6-.6-3.7-.9-6.2-.9s-4.4,.4-6.2,1.2c-1.9,.8-3.4,1.8-4.6,3.1-1.2,1.3-2.2,2.8-2.9,4.5-.7,1.7-1,3.4-1,5.2s.3,3.9,.9,5.6c.6,1.7,1.6,3.2,2.8,4.5Zm7.3-19.8c.8-1.4,1.9-2.1,3.3-2.1s1.5,.2,2,.6c.5,.4,.9,1.1,1.2,1.9,.3,.7,.5,1.6,.6,2.8s.2,2.2,.2,3.3h-8.6c0-2.9,.5-5.1,1.3-6.5Z"/><path d="M354.1,133.3c.8,.1,1.8,.3,3,.5,1.2,.2,2.2,.6,3,.9,1.1,.5,1.8,1.1,2.1,1.7,.4,.7,.5,1.5,.5,2.5v11.7c-1,.9-2.5,1.8-4.3,2.5-1.9,.7-4,1.1-6.3,1.1-5.1,0-9-2.4-11.8-7.2-2.8-4.8-4.2-11.4-4.2-19.9s1.4-14.2,4.2-18.8c2.8-4.5,6.8-6.8,12-6.8s8,1.5,10.9,4.6c2.9,3.1,5.3,7.7,7.4,14.1h3.6l-.4-21h-3.5l-2.5,2.2c-1.8-.9-4.1-1.8-6.9-2.6-2.8-.8-5.8-1.2-9.1-1.2-4.8,0-9.2,.7-13.2,2.2s-7.3,3.6-10.1,6.3c-2.8,2.8-5,6-6.4,9.9-1.5,3.8-2.2,8-2.2,12.5s.8,9.1,2.4,12.8c1.6,3.7,3.7,6.9,6.5,9.4,2.8,2.5,6,4.4,9.6,5.7,3.6,1.3,7.6,1.9,11.7,1.9s9.3-.7,14.6-2.1,9.3-3,12-4.6c0-1.2,0-2.2-.1-3.1,0-.8,0-1.9,0-3.3v-6.7c0-.9,.2-1.7,.5-2.6,.4-.8,1.1-1.4,2.2-1.7,1-.3,1.8-.5,2.4-.6,.6-.1,1.4-.2,2.2-.3v-3.2h-29.9v3.2Z"/><path d="M427.9,152.4c-.8-.4-1.3-.9-1.7-1.6-.4-.7-.5-1.7-.5-2.9s0-4.1,.2-8.3c.1-4.2,.2-7.8,.2-10.9s-.5-5.2-1.5-7c-1-1.8-2.3-3.2-4-4.1-1.8-1-3.7-1.6-5.9-1.9s-4.6-.5-7.2-.5-3.9,.2-6.2,.7c-2.2,.4-4.2,1.1-5.9,1.9-1.7,.8-3.2,1.8-4.4,3-1.2,1.2-1.8,2.6-1.8,4.1s.6,3.2,1.7,4.3c1.2,1.1,2.9,1.6,5.2,1.6s2.8-.1,3.6-.4c.8-.3,1.5-.7,2.1-1.3,.5-.4,.8-1,1.1-1.6,.2-.7,.4-1.3,.4-1.7,0-1-.2-2.1-.6-3.2-.4-1.1-.6-1.9-.7-2.5,.5-.4,1.1-.7,1.9-1,.8-.3,1.8-.5,3-.5s2.4,.3,3.2,.9c.8,.6,1.4,1.3,1.8,2.2,.4,.8,.6,1.7,.7,2.8,.1,1.1,.2,2,.2,2.7v3.9c-1.6,.8-4.1,1.6-7.5,2.6-3.4,1-6.3,1.9-8.8,2.8-1.3,.5-2.4,1-3.5,1.6-1.1,.6-2,1.3-2.8,2.2-.9,.9-1.6,2-2.1,3.3-.5,1.2-.7,2.7-.7,4.5,0,3.1,1.1,5.5,3.3,7.4,2.2,1.9,4.9,2.8,8,2.8s3.8-.1,4.9-.4c1.2-.3,2.4-.7,3.7-1.3,1-.5,1.9-1,2.7-1.7s1.7-1.4,2.7-2.4h.2c.6,1.8,1.6,3.2,3.2,4.2,1.6,1,4,1.5,7.3,1.5s3.5-.2,5.1-.6c1.6-.4,3-.9,4.2-1.4v-3c-.8,0-1.7,0-2.7,0-1,0-1.7-.2-2.2-.4Zm-15.4-3.9c-.7,.9-1.6,1.6-2.5,2.3-1,.6-2.2,.9-3.7,.9s-2.6-.5-3.6-1.4c-1-.9-1.4-2.5-1.4-4.6s.3-3,.9-4.2c.6-1.2,1.4-2.1,2.4-2.9,.9-.7,2.2-1.4,3.7-2.1,1.5-.7,3-1.3,4.5-1.8l-.2,13.8Z"/><path d="M456.8,152.6c-.8-.4-1.4-.8-1.7-1.5-.4-.6-.5-1.4-.5-2.4v-54.2l-.6-.6-20.4,1.1v3c.8,0,1.8,.2,2.9,.6,1.1,.3,1.9,.7,2.5,1,.7,.5,1.3,1.1,1.7,2,.4,.9,.6,1.8,.6,2.9v44.9c0,1-.2,1.8-.5,2.4-.3,.6-.9,1.1-1.8,1.4-.5,.2-1.1,.3-1.8,.4s-1.4,.1-2.1,.2v3h25.5v-3c-.8,0-1.5-.2-2.1-.4-.6-.2-1.2-.4-1.7-.6Z"/><path d="M485.4,152.6c-.8-.4-1.4-.8-1.7-1.5-.4-.6-.5-1.4-.5-2.4v-54.2l-.6-.6-20.4,1.1v3c.8,0,1.8,.2,2.9,.6,1.1,.3,1.9,.7,2.5,1,.7,.5,1.3,1.1,1.7,2,.4,.9,.6,1.8,.6,2.9v44.9c0,1-.2,1.8-.5,2.4-.3,.6-.9,1.1-1.8,1.4-.5,.2-1.1,.3-1.8,.4s-1.4,.1-2.1,.2v3h25.5v-3c-.8,0-1.5-.2-2.1-.4-.6-.2-1.2-.4-1.7-.6Z"/><path d="M534.4,121.2c-2.1-1.9-4.5-3.4-7.4-4.4-2.9-1-6.2-1.6-10-1.6s-6.9,.5-9.8,1.6c-2.9,1-5.4,2.5-7.4,4.4-2.1,2-3.6,4.2-4.7,6.7s-1.6,5.4-1.6,8.7,.6,6.3,1.8,8.9c1.2,2.7,2.8,4.9,4.9,6.7,2.1,1.9,4.6,3.3,7.4,4.3,2.8,.9,5.8,1.4,9.1,1.4s7.2-.5,10.2-1.6c3-1.1,5.5-2.6,7.6-4.7,2-1.9,3.5-4.2,4.6-6.8,1-2.7,1.6-5.5,1.6-8.5s-.5-5.8-1.6-8.4-2.6-4.8-4.6-6.7Zm-9.1,22.6c-.3,2.2-.7,4-1.3,5.5-.7,1.8-1.6,3.1-2.8,4-1.2,.9-2.6,1.4-4.2,1.4s-3.3-.5-4.4-1.5c-1.2-1-2.1-2.3-2.7-4-.7-1.9-1.2-3.9-1.4-5.8-.2-1.9-.3-4.4-.3-7.3s.1-4.4,.3-6.5c.2-2.1,.6-3.9,1.2-5.4,.6-1.7,1.5-3,2.7-4.1,1.1-1.1,2.7-1.6,4.6-1.6s3.2,.5,4.4,1.5,2,2.3,2.7,4c.5,1.4,.9,3.3,1.2,5.8,.3,2.4,.4,4.6,.4,6.5,0,2.9-.1,5.4-.4,7.5Z"/><path d="M577.1,115.4c-2.1,0-4.3,.5-6.5,1.5-2.2,1-4.1,2.4-5.9,4.2h-.3v-4.6l-.6-.5-19.8,1.1v3c.9,0,1.7,.2,2.6,.5s1.6,.5,2.1,.9c.7,.5,1.3,1.1,1.6,1.8,.3,.7,.5,1.5,.6,2.4v41.5c0,.9-.2,1.7-.5,2.5-.3,.7-.9,1.2-1.8,1.5-.5,.2-1.3,.3-2.3,.5-1,.1-1.9,.2-2.6,.3v3h29.3v-3c-.9,0-2-.2-3.3-.4-1.3-.2-2.4-.5-3.1-.8-.8-.3-1.3-.8-1.8-1.5-.4-.7-.6-1.5-.6-2.5v-11.4h.3c1.1,.8,2.4,1.4,4,1.9,1.6,.5,3.7,.8,6.3,.8,5.8,0,10.6-2,14.4-6.1,3.8-4.1,5.7-9,5.7-14.7s-1.6-11.7-4.9-15.6c-3.2-4-7.6-5.9-13.2-5.9Zm1.1,34.4c-1.6,2.9-3.7,4.3-6.4,4.3s-2-.2-2.8-.5c-.9-.4-1.6-.9-2.3-1.6-.5-.5-.9-1.2-1.4-2-.5-.9-.8-1.5-.9-2.1v-23c.8-1,1.7-1.8,2.7-2.4,1.1-.6,2.5-.9,4.2-.9s3.2,.4,4.4,1.3c1.2,.9,2.2,2,2.9,3.5,.8,1.5,1.3,3.1,1.6,5,.3,1.9,.4,3.8,.4,5.8,0,5.6-.8,9.8-2.4,12.7Z"/><path d="M622.2,152.6c-.8-.3-1.3-.8-1.7-1.5-.4-.7-.6-1.5-.6-2.4v-32.2l-.6-.6-19.9,1.1v3c.8,0,1.7,.3,2.7,.6,1,.3,1.7,.6,2.2,.9,.6,.4,1.2,1,1.6,1.7,.4,.7,.6,1.5,.6,2.5v23.6c0,1-.2,1.8-.5,2.4-.4,.6-1,1.1-1.8,1.4-.5,.2-1.1,.3-1.7,.4-.7,0-1.4,.1-2.1,.2v3h25.6v-3c-.7,0-1.4-.2-2-.4-.6-.2-1.2-.4-1.8-.6Z"/><path d="M612.1,108.8c2.2,0,4-.7,5.6-2.2,1.6-1.4,2.4-3.2,2.4-5.2s-.8-3.8-2.4-5.3c-1.6-1.5-3.4-2.2-5.6-2.2s-4.1,.7-5.7,2.2c-1.6,1.5-2.4,3.2-2.4,5.3s.8,3.8,2.4,5.2c1.6,1.4,3.5,2.2,5.7,2.2Z"/><path d="M679.5,152.7c-.8-.4-1.4-.8-1.7-1.4-.3-.6-.4-1.4-.4-2.4v-19.9c0-4.1-1.1-7.5-3.3-9.9-2.2-2.5-5.5-3.7-9.9-3.7s-3.6,.2-5.2,.7c-1.6,.5-2.9,1-3.9,1.7-.9,.6-1.9,1.4-3,2.3-1.1,.9-2,1.8-2.8,2.4h-.2v-5.9l-.6-.6-19.3,1.1v3c.9,0,1.7,.2,2.5,.4,.7,.2,1.4,.5,1.8,.8,.7,.5,1.3,1.2,1.7,2,.4,.8,.6,1.6,.6,2.5v23.6c0,1-.2,1.8-.5,2.4-.3,.6-.9,1.1-1.8,1.4-.5,.2-1.1,.3-1.8,.4-.7,0-1.4,.2-2,.2v3h24.6v-3c-.6,0-1.3-.2-1.9-.4-.6-.2-1.2-.4-1.6-.6-.6-.3-1.1-.8-1.3-1.4-.3-.6-.4-1.4-.4-2.4v-21.8c.3-.4,.7-.9,1.2-1.5,.5-.6,1.1-1.1,1.9-1.7,.9-.6,1.8-1.1,2.7-1.4,.9-.3,1.9-.5,3-.5,2,0,3.5,.7,4.5,2.1s1.5,3.5,1.5,6.2v19c0,1.1-.1,1.9-.4,2.5s-.6,1-1.2,1.3c-.4,.2-.9,.3-1.7,.4-.7,0-1.4,.1-1.9,.2v3h24.4v-3c-.8,0-1.5-.2-2.2-.4-.6-.2-1.2-.4-1.6-.6Z"/><path d="M712.8,115.7c-1.7-.3-3.5-.5-5.3-.5-5.6,0-10.3,1.2-13.9,3.6-3.7,2.4-5.5,5.6-5.5,9.5s.9,5.2,2.6,7.1c1.7,1.9,4.4,3.6,8,4.9v.4c-.7,.2-1.6,.5-2.7,.9-1.1,.4-2,.8-2.8,1.3-.9,.6-1.6,1.3-2.1,2.1-.6,.8-.8,1.7-.8,2.9,0,1.8,.7,3.5,2.1,4.9,1.4,1.4,3.3,2.5,5.8,3.4v.5c-4.2,.1-7.3,.9-9.3,2.3-2,1.4-3,3.1-3,5.3,0,3.5,1.9,6.1,5.6,7.8,3.7,1.7,9.1,2.6,16.2,2.6s8.1-.4,11.1-1.1c3-.8,5.5-1.8,7.7-3.2,2-1.3,3.5-2.9,4.5-4.7,1-1.8,1.5-3.7,1.5-5.8s-.4-3.6-1.2-5.1-1.8-2.7-3.1-3.6c-1.1-.9-2.5-1.6-4-2.2-1.5-.6-3.1-.9-4.7-1-1.1,0-2.9-.1-5.4-.3-2.5-.1-5-.2-7.5-.3-2.5,0-4.2-.3-5.1-.8-.9-.5-1.4-1.3-1.4-2.5s.2-1,.6-1.5c.4-.5,.8-.9,1.1-1.2h6.6c2.6,0,5-.3,7.2-.9,2.2-.6,4.1-1.4,5.8-2.5,1.6-1,2.9-2.4,3.9-4,1-1.6,1.5-3.4,1.5-5.2s-.3-2.8-.8-4.1c-.5-1.3-1.3-2.6-2.4-3.8h8.9v-4.4h-15.7c-.9-.2-2.2-.5-3.9-.8Zm-10.8,41.7c3.9,0,6.9,0,9.2,0,2.2,0,3.8,.2,4.8,.3,1.8,.6,2.9,1.3,3.4,2.2,.5,.9,.8,1.8,.8,2.7,0,3-.9,5.2-2.8,6.5-1.8,1.4-4.5,2-8,2s-4.1-.2-5.3-.7c-1.2-.4-2.2-1.1-3.2-1.8-.8-.7-1.4-1.5-1.8-2.3-.4-.8-.6-1.6-.6-2.2,0-1.6,.3-2.9,1-4,.6-1.1,1.4-2.1,2.4-2.9Zm9.8-21.5c-1,1.7-2.5,2.6-4.5,2.6s-3.4-.9-4.4-2.8c-1-1.9-1.5-4.3-1.5-7.3s0-2.6,.2-3.8,.5-2.3,.9-3.2c.5-.9,1.1-1.7,1.9-2.2,.8-.5,1.7-.7,2.8-.7,2.1,0,3.6,.9,4.6,2.8,1,1.8,1.5,4.3,1.5,7.5s-.5,5.5-1.6,7.2Z"/><path d="M790.6,133.3c.8,.1,1.8,.3,3,.5,1.2,.2,2.2,.6,3,.9,1.1,.5,1.8,1.1,2.1,1.7,.4,.7,.5,1.5,.5,2.5v11.7c-1,.9-2.5,1.8-4.3,2.5-1.9,.7-4,1.1-6.3,1.1-5.1,0-9-2.4-11.8-7.2-2.8-4.8-4.2-11.4-4.2-19.9s1.4-14.2,4.2-18.8c2.8-4.5,6.8-6.8,12-6.8s8,1.5,10.9,4.6c2.9,3.1,5.3,7.7,7.4,14.1h3.6l-.4-21h-3.5l-2.5,2.2c-1.8-.9-4.1-1.8-6.9-2.6-2.8-.8-5.8-1.2-9.1-1.2-4.8,0-9.2,.7-13.2,2.2s-7.3,3.6-10.1,6.3c-2.8,2.8-5,6-6.4,9.9-1.5,3.8-2.2,8-2.2,12.5s.8,9.1,2.4,12.8c1.6,3.7,3.7,6.9,6.5,9.4,2.8,2.5,6,4.4,9.6,5.7,3.6,1.3,7.6,1.9,11.7,1.9s9.3-.7,14.6-2.1,9.3-3,12-4.6c0-1.2,0-2.2-.1-3.1,0-.8,0-1.9,0-3.3v-6.7c0-.9,.2-1.7,.5-2.6,.4-.8,1.1-1.4,2.2-1.7,1-.3,1.8-.5,2.4-.6,.6-.1,1.4-.2,2.2-.3v-3.2h-29.9v3.2Z"/><path d="M864.3,121.2c-2.1-1.9-4.5-3.4-7.4-4.4-2.9-1-6.2-1.6-10-1.6s-6.9,.5-9.8,1.6c-2.9,1-5.4,2.5-7.4,4.4-2.1,2-3.6,4.2-4.7,6.7s-1.6,5.4-1.6,8.7,.6,6.3,1.8,8.9c1.2,2.7,2.8,4.9,4.9,6.7,2.1,1.9,4.6,3.3,7.4,4.3,2.8,.9,5.8,1.4,9.1,1.4s7.2-.5,10.2-1.6c3-1.1,5.5-2.6,7.6-4.7,2-1.9,3.5-4.2,4.6-6.8,1-2.7,1.6-5.5,1.6-8.5s-.5-5.8-1.6-8.4-2.6-4.8-4.6-6.7Zm-9.1,22.6c-.3,2.2-.7,4-1.3,5.5-.7,1.8-1.6,3.1-2.8,4-1.2,.9-2.6,1.4-4.2,1.4s-3.3-.5-4.4-1.5c-1.2-1-2.1-2.3-2.7-4-.7-1.9-1.2-3.9-1.4-5.8-.2-1.9-.3-4.4-.3-7.3s.1-4.4,.3-6.5c.2-2.1,.6-3.9,1.2-5.4,.6-1.7,1.5-3,2.7-4.1,1.1-1.1,2.7-1.6,4.6-1.6s3.2,.5,4.4,1.5,2,2.3,2.7,4c.5,1.4,.9,3.3,1.2,5.8,.3,2.4,.4,4.6,.4,6.5,0,2.9-.1,5.4-.4,7.5Z"/><path d="M917.1,121.2c-2.1-1.9-4.5-3.4-7.4-4.4-2.9-1-6.2-1.6-10-1.6s-6.9,.5-9.8,1.6c-2.9,1-5.4,2.5-7.4,4.4-2.1,2-3.6,4.2-4.7,6.7s-1.6,5.4-1.6,8.7,.6,6.3,1.8,8.9c1.2,2.7,2.8,4.9,4.9,6.7,2.1,1.9,4.6,3.3,7.4,4.3,2.8,.9,5.8,1.4,9.1,1.4s7.2-.5,10.2-1.6c3-1.1,5.5-2.6,7.6-4.7,2-1.9,3.5-4.2,4.6-6.8,1-2.7,1.6-5.5,1.6-8.5s-.5-5.8-1.6-8.4-2.6-4.8-4.6-6.7Zm-9.1,22.6c-.3,2.2-.7,4-1.3,5.5-.7,1.8-1.6,3.1-2.8,4-1.2,.9-2.6,1.4-4.2,1.4s-3.3-.5-4.4-1.5c-1.2-1-2.1-2.3-2.7-4-.7-1.9-1.2-3.9-1.4-5.8-.2-1.9-.3-4.4-.3-7.3s.1-4.4,.3-6.5c.2-2.1,.6-3.9,1.2-5.4,.6-1.7,1.5-3,2.7-4.1,1.1-1.1,2.7-1.6,4.6-1.6s3.2,.5,4.4,1.5,2,2.3,2.7,4c.5,1.4,.9,3.3,1.2,5.8,.3,2.4,.4,4.6,.4,6.5,0,2.9-.1,5.4-.4,7.5Z"/><path d="M952.1,130.8c-3.1-.8-5.6-1.7-7.3-2.6-1.7-.9-2.6-2.4-2.6-4.5s.6-2.7,1.8-3.6c1.2-.9,2.8-1.3,4.9-1.3s5.1,1,7.4,3.1c2.3,2,3.9,4.5,4.9,7.3h2.8l-.6-13.8h-3.1l-.9,2.4c-1.4-.6-3.1-1.1-5.2-1.6-2.1-.5-4.3-.7-6.8-.7-5.2,0-9.4,1.2-12.6,3.5-3.2,2.4-4.8,5.4-4.8,9.2s.4,3.8,1.1,5.3c.7,1.5,1.7,2.8,2.9,3.8,1.4,1.2,2.8,2.1,4.1,2.6,1.3,.6,2.9,1.1,4.7,1.6,1.8,.5,3.4,1,4.6,1.4,1.3,.4,2.4,.8,3.5,1.4,.9,.5,1.7,1.1,2.2,1.8,.5,.7,.8,1.6,.8,2.7,0,2-.6,3.5-1.8,4.4-1.2,1-3,1.4-5.5,1.4s-3.6-.4-5.2-1.3c-1.6-.8-3.1-1.9-4.4-3.1-1.2-1.2-2.3-2.6-3.2-4.1-.9-1.5-1.6-2.9-2-4.1h-3l.5,15.1h3.2l1.2-2.8c1.4,.9,3.3,1.7,5.8,2.5,2.5,.8,5.1,1.2,7.7,1.2,5.6,0,10.1-1.2,13.6-3.6,3.5-2.4,5.2-5.9,5.2-10.3s-1.1-6.1-3.4-8.2c-2.2-2.1-5.8-3.8-10.6-5.1Z"/><path d="M1011.5,144.7c-1.4,2.1-3.2,3.9-5.2,5.3-2,1.4-4.3,2.1-6.8,2.1-4.6,0-8-1.4-10.2-4.3-2.1-2.9-3.2-7.1-3.2-12.6h27.4v-2.6c0-2.3-.4-4.5-1.1-6.6-.7-2.1-1.8-3.9-3.4-5.5-1.6-1.6-3.6-2.9-6-3.8-2.4-.9-5.5-1.4-9.3-1.4s-6.6,.6-9.4,1.8c-2.8,1.2-5.1,2.7-7,4.7-1.9,2-3.3,4.2-4.3,6.7-1,2.5-1.5,5.2-1.5,7.9s.5,5.9,1.4,8.5c.9,2.6,2.3,4.9,4.2,6.8,1.9,1.9,4.3,3.4,7.2,4.6s6.4,1.7,10.4,1.7,4.5-.3,6.4-.8c1.8-.5,3.7-1.3,5.5-2.3,1.7-1,3.2-2.1,4.6-3.5,1.3-1.4,2.5-2.8,3.4-4.4l-3.1-2.2Zm-23.4-23c1.2-2.1,2.9-3.2,5-3.2s2.2,.3,3,1,1.4,1.6,1.9,2.9c.4,1.1,.7,2.5,.9,4.2s.2,3.4,.2,5l-13,.2c.1-4.6,.8-7.9,2-10Z"/></svg>