<svg version="1.1" viewBox="0.0 0.0 960.0 720.0" fill="none" stroke="none" stroke-linecap="square" stroke-miterlimit="10" xmlns:xlink="http://www.w3.org/1999/xlink" xmlns="http://www.w3.org/2000/svg"><clipPath id="p.0"><path d="m0 0l960.0 0l0 720.0l-960.0 0l0 -720.0z" clip-rule="nonzero"/></clipPath><g clip-path="url(#p.0)"><path fill="#000000" fill-opacity="0.0" d="m0 0l960.0 0l0 720.0l-960.0 0z" fill-rule="evenodd"/><path fill="#000000" d="m348.37802 330.4671l131.6218 -95.56946l131.62177 95.56946l-50.275024 154.63464l-162.69348 0z" fill-rule="evenodd"/><path stroke="#000000" stroke-width="1.0" stroke-linejoin="round" stroke-linecap="butt" d="m348.37802 330.4671l131.6218 -95.56946l131.62177 95.56946l-50.275024 154.63464l-162.69348 0z" fill-rule="evenodd"/><path fill="#ffffff" d="m399.35635 320.2047l0 19.172821l43.75409 0l0 63.642303c0 15.128418 -6.3814087 22.692627 -19.144196 22.692627c-4.8075256 0 -9.23349 -1.1732788 -13.277893 -3.519806c-4.0444336 -2.346527 -7.7645264 -5.8663025 -11.160309 -10.559357l-13.020355 15.653046c4.2161255 5.742279 9.634125 10.139648 16.253998 13.192047c6.638916 3.0332947 13.878815 4.5499573 21.719635 4.5499573c13.487762 0 23.770477 -3.5674744 30.848206 -10.702454c7.0968018 -7.154022 10.645203 -17.999542 10.645203 -32.53653l0 -81.584656z" fill-rule="evenodd"/><path fill="#ffffff" d="m497.99295 320.2047l0 123.078064l22.835663 0l0 -47.1308l59.43579 0l0 -19.315887l-59.43579 0l0 -37.458557l66.99042 0l0 -19.172821z" fill-rule="evenodd"/><path stroke="#ffffff" stroke-width="1.0" stroke-linejoin="round" stroke-linecap="butt" d="m399.35635 320.2047l0 19.172821l43.75409 0l0 63.642303c0 15.128418 -6.3814087 22.692627 -19.144196 22.692627c-4.8075256 0 -9.23349 -1.1732788 -13.277893 -3.519806c-4.0444336 -2.346527 -7.7645264 -5.8663025 -11.160309 -10.559357l-13.020355 15.653046c4.2161255 5.742279 9.634125 10.139648 16.253998 13.192047c6.638916 3.0332947 13.878815 4.5499573 21.719635 4.5499573c13.487762 0 23.770477 -3.5674744 30.848206 -10.702454c7.0968018 -7.154022 10.645203 -17.999542 10.645203 -32.53653l0 -81.584656z" fill-rule="evenodd"/><path stroke="#ffffff" stroke-width="1.0" stroke-linejoin="round" stroke-linecap="butt" d="m497.99295 320.2047l0 123.078064l22.835663 0l0 -47.1308l59.43579 0l0 -19.315887l-59.43579 0l0 -37.458557l66.99042 0l0 -19.172821z" fill-rule="evenodd"/></g></svg>